<?xml version="1.0" standalone="no"?>
<!DOCTYPE svg PUBLIC "-//W3C//DTD SVG 20010904//EN"
 "http://www.w3.org/TR/2001/REC-SVG-20010904/DTD/svg10.dtd">
<svg version="1.0" xmlns="http://www.w3.org/2000/svg"
 width="1024.000000pt" height="1024.000000pt" viewBox="0 0 1024.000000 1024.000000"
 preserveAspectRatio="xMidYMid meet">

<g transform="translate(0.000000,1024.000000) scale(0.100000,-0.100000)"
fill="#000000" stroke="none">
<path d="M4690 6910 c-792 -5 -795 -5 -835 -27 -54 -29 -109 -88 -134 -143
-15 -33 -21 -66 -21 -127 l0 -83 -47 0 c-109 -1 -175 -62 -181 -167 -4 -54 -1
-69 23 -109 32 -55 86 -83 158 -84 l47 0 0 -129 0 -129 -59 -4 c-116 -8 -177
-77 -169 -192 6 -104 73 -165 181 -166 l47 0 0 -129 0 -128 -58 -6 c-75 -6
-115 -28 -148 -77 -23 -35 -26 -47 -22 -107 6 -119 68 -173 198 -173 l70 0 0
-199 c0 -110 3 -207 6 -216 4 -10 23 32 50 112 38 111 43 139 44 216 l0 87 48
0 c66 0 130 35 159 86 27 46 31 130 9 172 -31 60 -104 102 -176 102 l-40 0 0
130 0 130 50 0 c28 0 63 6 78 14 31 16 74 61 91 93 18 34 13 124 -8 163 -24
46 -107 90 -167 90 l-44 0 0 129 0 129 59 4 c103 7 173 79 173 177 0 104 -66
171 -174 179 l-60 5 4 78 c3 86 19 116 78 157 l33 22 1117 0 1117 0 33 -22
c18 -13 43 -36 54 -51 21 -28 21 -38 24 -603 l3 -575 64 98 c36 54 67 111 71
128 3 16 4 235 2 485 -3 455 -3 455 -27 508 -27 59 -75 106 -138 134 -39 17
-74 19 -415 21 -205 1 -731 0 -1168 -3z"/>
<path d="M4263 6600 c-12 -5 -26 -18 -32 -29 -7 -13 -11 -121 -11 -300 l0
-280 24 -28 24 -28 284 -3 c155 -2 293 0 306 3 12 3 31 20 42 38 18 30 20 51
20 294 0 182 -4 270 -12 288 -24 52 -43 55 -345 54 -153 0 -288 -4 -300 -9z
m535 -152 c7 -7 12 -21 12 -32 -1 -25 -278 -316 -301 -316 -23 0 -159 129
-159 150 0 64 48 68 105 10 21 -22 44 -40 51 -40 6 0 63 54 125 119 112 118
140 136 167 109z"/>
<path d="M7183 6450 c-18 -10 -49 -42 -70 -70 -30 -41 -43 -50 -68 -50 -16 0
-39 -8 -51 -18 -60 -50 -353 -432 -515 -672 -46 -69 -95 -138 -109 -155 -75
-89 -446 -699 -622 -1025 -92 -169 -191 -462 -204 -601 -6 -59 -4 -69 15 -88
47 -47 136 -18 281 89 120 90 215 190 366 385 382 496 662 935 980 1535 57
107 104 191 104 186 0 -27 -36 -140 -71 -219 -54 -121 -128 -244 -206 -340
-70 -87 -78 -119 -40 -155 39 -36 62 -28 105 36 129 190 247 439 292 616 25
100 25 135 -1 189 l-22 44 39 68 c61 110 50 184 -36 243 -43 29 -121 30 -167
2z m102 -90 c3 -5 -3 -26 -14 -47 -36 -67 -35 -67 -65 -48 l-26 17 31 44 c29
42 60 57 74 34z m-212 -164 c15 -11 16 -19 8 -34 -5 -10 -101 -158 -212 -328
-111 -170 -215 -330 -232 -356 -33 -53 -32 -53 -65 -35 -23 13 -23 14 70 158
179 277 401 609 407 609 3 0 14 -7 24 -14z m-596 -816 c68 -30 154 -93 211
-153 28 -31 52 -60 52 -64 0 -5 -6 -18 -14 -28 -13 -19 -16 -18 -63 26 -55 51
-154 123 -228 164 -27 16 -52 30 -53 31 -2 1 -1 12 3 23 8 26 37 27 92 1z
m-54 -178 c16 -17 11 -28 -82 -178 -54 -87 -144 -231 -201 -319 -56 -88 -125
-195 -152 -237 -47 -73 -51 -76 -74 -66 -13 6 -24 15 -24 20 0 5 97 161 216
346 119 185 233 363 253 395 20 31 39 57 42 57 3 0 13 -8 22 -18z m-542 -899
c43 -23 65 -41 60 -47 -4 -6 -59 -78 -121 -161 -138 -183 -124 -169 -148 -156
-20 11 -20 11 3 83 35 116 120 318 132 318 3 0 36 -17 74 -37z"/>
<path d="M4310 5700 c-26 -26 -25 -62 1 -86 20 -18 49 -19 848 -20 864 -1 869
0 885 41 11 29 7 51 -12 68 -17 16 -91 17 -860 17 -829 0 -842 0 -862 -20z"/>
<path d="M4330 5373 c-42 -15 -52 -69 -19 -99 20 -18 49 -19 749 -21 544 -1
733 2 751 11 31 15 38 69 13 97 -17 18 -41 19 -748 18 -402 0 -738 -3 -746 -6z"/>
<path d="M4336 5050 c-35 -11 -46 -26 -46 -62 0 -58 2 -58 475 -58 l432 0 21
23 c28 29 28 59 1 83 -20 18 -43 19 -438 21 -229 1 -429 -2 -445 -7z"/>
<path d="M2626 4859 c-69 -19 -131 -119 -173 -278 -22 -83 -25 -118 -26 -256
0 -224 37 -395 107 -487 52 -68 81 -76 297 -80 218 -4 229 0 296 100 39 57
101 218 89 230 -3 2 -55 7 -116 10 -130 6 -141 12 -167 101 -20 69 -14 191 12
241 35 69 36 70 165 70 l118 0 -9 43 c-29 129 -101 253 -172 293 -34 19 -54
21 -215 21 -97 0 -190 -3 -206 -8z m180 -69 c-55 -59 -107 -163 -137 -275 -27
-99 -30 -330 -6 -435 8 -36 13 -67 12 -68 -7 -7 -44 75 -66 148 -31 97 -33
270 -4 370 42 150 116 260 198 295 52 23 52 18 3 -35z"/>
<path d="M3965 4801 c-53 -24 -95 -86 -133 -191 -39 -111 -52 -200 -52 -358 0
-266 69 -489 168 -542 24 -13 73 -18 221 -24 168 -6 195 -5 226 10 49 23 96
81 136 168 l34 73 49 6 c28 4 57 13 65 22 14 13 14 15 0 15 -15 0 -49 30 -49
43 0 3 14 1 31 -5 41 -14 75 10 109 78 22 43 25 62 25 159 0 95 -3 116 -24
158 -40 81 -95 91 -144 26 -39 -53 -58 -203 -38 -306 11 -56 -3 -46 -24 17
-41 124 -6 299 77 387 34 35 33 35 -48 48 -38 6 -42 10 -63 59 -25 62 -80 130
-123 152 -18 9 -56 15 -95 15 -65 0 -67 0 -115 -48 -59 -57 -119 -174 -149
-288 -28 -104 -32 -365 -7 -462 8 -35 13 -63 11 -63 -12 0 -65 136 -79 201
-19 89 -14 252 11 344 36 132 117 252 193 286 18 7 32 17 32 20 0 3 -21 9 -46
13 -83 11 -157 6 -199 -13z m505 -238 c0 -5 -7 -17 -16 -28 -8 -11 -26 -55
-39 -98 -38 -118 -33 -301 10 -422 l7 -20 -17 20 c-10 11 -31 49 -49 85 -29
61 -31 72 -30 170 0 123 23 197 81 261 33 37 53 49 53 32z"/>
<path d="M2353 4585 c-13 -9 -48 -49 -79 -91 -114 -151 -112 -263 9 -404 46
-53 68 -71 94 -76 19 -4 36 -4 39 -1 3 3 -2 41 -12 84 -28 123 -21 401 13 489
7 19 -36 19 -64 -1z"/>
<path d="M6523 4508 c-21 -29 -72 -98 -113 -153 -41 -56 -86 -117 -99 -136
-13 -19 -48 -52 -78 -73 -29 -21 -60 -48 -68 -60 -12 -18 -160 -155 -245 -225
l-25 -21 240 2 240 3 47 27 c54 33 109 103 132 172 14 41 17 89 15 283 0 128
-3 233 -5 233 -2 0 -21 -24 -41 -52z"/>
<path d="M3005 4405 c-20 -71 -17 -200 5 -246 l12 -26 355 -8 c195 -4 356 -5
357 -4 2 2 6 77 8 166 l5 162 -41 5 c-23 3 -186 7 -362 10 l-322 5 -17 -64z"/>
<path d="M4803 4062 c-51 -108 -76 -131 -155 -145 -61 -10 -68 -14 -78 -40 -5
-17 -10 -32 -10 -33 0 -2 212 -4 470 -4 l470 0 0 39 c0 37 25 196 36 234 5 16
-16 17 -348 17 l-353 0 -32 -68z"/>
</g>
</svg>
